<svg width="36" height="40" viewBox="0 0 36 40" fill="none" xmlns="http://www.w3.org/2000/svg">
<path d="M18.0664 2L33.9267 11.1572V27.1213C33.9267 27.8357 33.7386 28.5375 33.3814 29.1562C33.0242 29.7749 32.5104 30.2886 31.8917 30.6458L20.1013 37.4547C19.4826 37.812 18.7808 38 18.0664 38C17.352 38 16.6501 37.812 16.0314 37.4547L4.24099 30.6458C3.62231 30.2886 3.10855 29.7749 2.75134 29.1562C2.39414 28.5375 2.20607 27.8357 2.20605 27.1213V11.1572L18.0664 2Z" stroke="#314272" stroke-width="2.5" stroke-linecap="round" stroke-linejoin="round"/>
<path d="M18.0665 10.1399V20.3146M18.0665 20.3146L9.25519 25.4019M18.0665 20.3146L26.8778 25.4019" stroke="#314272" stroke-width="2.5" stroke-linecap="round" stroke-linejoin="round"/>
</svg>
