<svg width="40" height="40" viewBox="0 0 40 40" fill="none" xmlns="http://www.w3.org/2000/svg">
<path d="M9.19638 37.9992C13.1708 37.9992 16.3928 34.7774 16.3928 30.8028C16.3928 26.8284 13.1708 23.6064 9.19638 23.6064C5.22193 23.6064 2 26.8284 2 30.8028C2 34.7774 5.22193 37.9992 9.19638 37.9992Z" stroke="#314272" stroke-width="2.5" stroke-linecap="round" stroke-linejoin="round"/>
<path d="M30.7856 34.4015C34.76 34.4015 37.982 31.1797 37.982 27.2052C37.982 23.2308 34.76 20.0088 30.7856 20.0088C26.8112 20.0088 23.5892 23.2308 23.5892 27.2052C23.5892 31.1797 26.8112 34.4015 30.7856 34.4015Z" stroke="#314272" stroke-width="2.5" stroke-linecap="round" stroke-linejoin="round"/>
<path d="M16.3926 30.7855V14.7557C16.391 12.2035 17.2936 9.73317 18.9405 7.78337C20.5872 5.83356 22.8715 4.53039 25.3881 4.10503L37.9818 2V27.1873" stroke="#314272" stroke-width="2.5" stroke-linecap="round" stroke-linejoin="round"/>
</svg>
