<svg width="39" height="39" viewBox="0 0 39 39" fill="none" xmlns="http://www.w3.org/2000/svg">
<path d="M19.667 37.667C29.608 37.667 37.667 29.608 37.667 19.667C37.667 9.72586 29.608 1.66699 19.667 1.66699C9.72586 1.66699 1.66699 9.72586 1.66699 19.667C1.66699 22.5465 2.34311 25.2679 3.54522 27.6815C3.86468 28.3228 3.97101 29.056 3.78581 29.7481L2.71371 33.7551C2.2483 35.4944 3.83961 37.0856 5.57902 36.6203L9.58589 35.5482C10.2781 35.363 11.0112 35.4694 11.6525 35.7887C14.0661 36.9909 16.7875 37.667 19.667 37.667Z" stroke="#1A2D62" stroke-width="2.5"/>
<path d="M19.667 26.867V12.467" stroke="#1A2D62" stroke-width="2.5" stroke-linecap="round"/>
<path d="M12.4668 23.2674V16.0674" stroke="#1A2D62" stroke-width="2.5" stroke-linecap="round"/>
<path d="M26.8672 23.2674V16.0674" stroke="#1A2D62" stroke-width="2.5" stroke-linecap="round"/>
</svg>
