<svg width="36" height="36" viewBox="0 0 36 36" fill="none" xmlns="http://www.w3.org/2000/svg">
                  <path class="change-color" fill-rule="evenodd" clip-rule="evenodd" d="M9 11.25C7.758 11.25 6.75 10.242 6.75 9C6.75 7.758 7.758 6.75 9 6.75C10.242 6.75 11.25 7.758 11.25 9C11.25 10.242 10.242 11.25 9 11.25ZM9 4.5C6.51487 4.5 4.5 6.51487 4.5 9C4.5 11.4851 6.51487 13.5 9 13.5C11.4851 13.5 13.5 11.4851 13.5 9C13.5 6.51487 11.4851 4.5 9 4.5ZM33.75 19.269L27 12.375L15.8164 23.7499L11.25 19.125L2.25 27.3791V4.5C2.25 3.258 3.258 2.25 4.5 2.25H31.5C32.742 2.25 33.75 3.258 33.75 4.5V19.269ZM33.75 31.5C33.75 32.742 32.742 33.75 31.5 33.75H25.686L17.397 25.3519L27 15.7489L33.75 22.4989V31.5ZM4.5 33.75C3.258 33.75 2.25 32.742 2.25 31.5V30.4436L11.1881 22.4381L22.5011 33.75H4.5ZM31.5 0H4.5C2.01487 0 0 2.01487 0 4.5V31.5C0 33.9851 2.01487 36 4.5 36H31.5C33.9851 36 36 33.9851 36 31.5V4.5C36 2.01487 33.9851 0 31.5 0Z" fill="#ffffff"/>
                  </svg>