<svg width="33" height="36" viewBox="0 0 33 36" fill="none" xmlns="http://www.w3.org/2000/svg">
<path d="M30.4632 12.8772H29.538L29.5866 9.4752C29.5808 9.27638 29.5042 9.08618 29.3706 8.9388L21.4218 0.2412C21.358 0.168233 21.2798 0.109169 21.1922 0.0676768C21.1045 0.0261842 21.0093 0.00314857 20.9124 0L4.28042 0C3.90751 0.0059869 3.55147 0.156422 3.28725 0.419638C3.02303 0.682854 2.87123 1.03832 2.86382 1.4112V12.8772H1.93682C1.42382 12.8772 0.928821 13.0896 0.568821 13.4676C0.201512 13.8518 -0.00239883 14.3635 2.12985e-05 14.895V25.389C2.12985e-05 26.5014 0.867621 27.405 1.93682 27.405H2.86382V34.587C2.8708 34.9608 3.02289 35.3173 3.28793 35.5809C3.55297 35.8446 3.91018 35.9949 4.28402 36H28.1844C28.9314 36 29.5884 35.3664 29.5884 34.5888V27.4068H30.465C31.5342 27.4068 32.4018 26.5014 32.4018 25.3872V14.8932C32.4018 14.3604 32.1984 13.8456 31.8348 13.4676C31.6584 13.282 31.4463 13.134 31.2112 13.0325C30.9761 12.931 30.7229 12.8782 30.4668 12.8772H30.4632ZM5.31002 2.4804H17.8308V10.719C17.8301 10.9045 17.9011 11.0831 18.0288 11.2176C18.0908 11.2828 18.1653 11.3347 18.2479 11.3703C18.3305 11.4059 18.4195 11.4243 18.5094 11.4246H27.0756V12.8772H5.31002V2.4804ZM5.31002 33.5196V27.405H27.0756V33.5196H5.31002ZM20.3238 2.736L21.0168 3.5172L25.6608 8.6526L25.9182 8.964H21.1716C20.8116 8.964 20.5866 8.9046 20.4912 8.784C20.3958 8.667 20.34 8.478 20.3238 8.2206V2.736ZM3.60002 25.6176V14.8176H7.05242C8.35922 14.8176 9.21242 14.8716 9.60842 14.9796C10.2204 15.1416 10.7316 15.4944 11.1438 16.038C11.5542 16.5798 11.7612 17.28 11.7612 18.1404C11.7612 18.8028 11.6424 19.3608 11.4048 19.8144C11.1672 20.2644 10.8648 20.619 10.4994 20.8764C10.1654 21.1202 9.78595 21.2946 9.38342 21.3894C8.87042 21.492 8.12702 21.5442 7.15322 21.5442H5.75102V25.6176H3.60002ZM5.75102 16.6446V19.71H6.92822C7.77602 19.71 8.34302 19.6524 8.62922 19.5408C8.90585 19.4364 9.14281 19.2479 9.30682 19.0019C9.47083 18.7559 9.55364 18.4647 9.54362 18.1692C9.55675 17.8136 9.43453 17.4662 9.20162 17.1972C8.97688 16.9435 8.67192 16.7745 8.33762 16.7184C8.08202 16.6698 7.56542 16.6464 6.78962 16.6464H5.75102V16.6446ZM13.023 14.8176H16.9542C17.8416 14.8176 18.5166 14.886 18.9828 15.0246C19.6074 15.21 20.142 15.543 20.5884 16.0182C21.033 16.4952 21.3732 17.0784 21.6054 17.7678C21.8394 18.459 21.9546 19.3086 21.9546 20.3202C21.9546 21.2094 21.8466 21.9762 21.627 22.6188C21.3606 23.4054 20.979 24.0408 20.4858 24.5268C20.1132 24.8958 19.6092 25.1838 18.9738 25.3908C18.5004 25.542 17.865 25.6176 17.0712 25.6176H13.023V14.8176ZM15.174 16.6446V23.7978H16.7796C17.3808 23.7978 17.8146 23.7636 18.081 23.6952C18.4302 23.6052 18.72 23.4576 18.9486 23.2452C19.179 23.0346 19.368 22.6872 19.512 22.203C19.6578 21.7188 19.7298 21.06 19.7298 20.2248C19.7298 19.3896 19.6578 18.7488 19.5138 18.3024C19.3995 17.9085 19.1892 17.5492 18.9018 17.2566C18.624 16.9973 18.2792 16.8209 17.9064 16.7472C17.6058 16.6788 17.0172 16.6446 16.1424 16.6446H15.174ZM23.2974 25.6176V14.8176H30.6V16.6446H25.4484V19.2006H29.8944V21.0276H25.4484V25.6176H23.2974Z" fill="#314272"/>
</svg>
